<?xml version="1.0" encoding="utf-8"?>
<!-- Generator: Adobe Illustrator 18.1.1, SVG Export Plug-In . SVG Version: 6.00 Build 0)  -->
<!DOCTYPE svg PUBLIC "-//W3C//DTD SVG 1.1//EN" "http://www.w3.org/Graphics/SVG/1.1/DTD/svg11.dtd">
<svg version="1.1" id="Layer_1" xmlns="http://www.w3.org/2000/svg" xmlns:xlink="http://www.w3.org/1999/xlink" x="0px" y="0px"
	 width="95.8px" height="108px" viewBox="0 0 95.8 108" enable-background="new 0 0 95.8 108" xml:space="preserve">
<g>
	<g>
		<linearGradient id="SVGID_1_" gradientUnits="userSpaceOnUse" x1="47.8895" y1="107.997" x2="47.8895" y2="2.826873e-05">
			<stop  offset="0" style="stop-color:#92278F"/>
			<stop  offset="8.814891e-02" style="stop-color:#892D93"/>
			<stop  offset="0.2347" style="stop-color:#6F3E9C"/>
			<stop  offset="0.4204" style="stop-color:#4659AC"/>
			<stop  offset="0.5843" style="stop-color:#1C75BC"/>
			<stop  offset="1" style="stop-color:#27AAE1"/>
		</linearGradient>
		<path fill="url(#SVGID_1_)" d="M48.8,60.6v21.6c1.8,0.2,3.3,1.2,4.4,2.5l18.7-10.8c-0.3-0.8-0.5-1.6-0.5-2.5
			c0-0.9,0.2-1.8,0.5-2.5L53.1,58C52.1,59.4,50.5,60.3,48.8,60.6z M42.6,58L23.9,68.8c0.3,0.8,0.5,1.6,0.5,2.5
			c0,0.9-0.2,1.8-0.5,2.5l18.7,10.8c1-1.4,2.6-2.3,4.4-2.5V60.6C45.2,60.3,43.7,59.4,42.6,58z M42.6,23.2L23.9,34.1
			c0.3,0.8,0.5,1.6,0.5,2.5s-0.2,1.8-0.5,2.5L42.6,50c1-1.4,2.6-2.3,4.4-2.5V25.8C45.2,25.6,43.7,24.6,42.6,23.2z M91.9,24.1
			L51.7,0.9c-2.1-1.2-5.6-1.2-7.7,0L3.8,24.1C1.7,25.4,0,28.3,0,30.8v46.5c0,2.4,1.7,5.4,3.8,6.6l40.2,23.2c2.1,1.2,5.6,1.2,7.7,0
			l40.2-23.2c2.1-1.2,3.8-4.2,3.8-6.6V30.8C95.8,28.3,94.1,25.4,91.9,24.1z M54.5,54c0,0.9-0.2,1.8-0.5,2.5l18.7,10.8
			c1.2-1.6,3.1-2.6,5.3-2.6c3.7,0,6.6,3,6.6,6.6c0,3.7-3,6.6-6.6,6.6c-2.1,0-4-1-5.3-2.6L54,86.2c0.3,0.8,0.5,1.6,0.5,2.5
			c0,3.7-3,6.6-6.6,6.6c-3.7,0-6.6-3-6.6-6.6c0-0.9,0.2-1.8,0.5-2.5L23,75.4C21.8,77,19.9,78,17.8,78c-3.7,0-6.6-3-6.6-6.6
			c0-3.7,3-6.6,6.6-6.6c2.1,0,4,1,5.3,2.6l18.7-10.8c-0.3-0.8-0.5-1.6-0.5-2.5c0-0.9,0.2-1.8,0.5-2.5L23,40.6
			c-1.2,1.6-3.1,2.6-5.3,2.6c-3.7,0-6.6-3-6.6-6.6c0-3.7,3-6.6,6.6-6.6c2.1,0,4,1,5.3,2.6l18.7-10.8c-0.3-0.8-0.5-1.6-0.5-2.5
			c0-3.7,3-6.6,6.6-6.6c3.7,0,6.6,3,6.6,6.6c0,3.4-2.5,6.1-5.8,6.6v21.6c1.8,0.2,3.3,1.2,4.4,2.5l18.7-10.8
			c-0.3-0.8-0.5-1.6-0.5-2.5c0-3.7,3-6.6,6.6-6.6s6.6,3,6.6,6.6c0,3.7-3,6.6-6.6,6.6c-2.1,0-4-1-5.3-2.6L54,51.5
			C54.3,52.2,54.5,53.1,54.5,54z"/>
	</g>
</g>
</svg>
